<svg id="Layer_1" data-name="Layer 1" xmlns="http://www.w3.org/2000/svg" viewBox="0 0 332.34 381.13"><defs><style>.cls-1{fill:#4c6a92;}</style></defs><title>share-alt</title><path class="cls-1" d="M262,240.48a70.19,70.19,0,0,0-53.81,25.12l-73.89-45.92a70.12,70.12,0,0,0-.25-58.77l73.74-45.83A70.18,70.18,0,1,0,197.38,98l-74.27,46.16a70.33,70.33,0,1,0,.39,92.34l74.13,46.06A70.31,70.31,0,1,0,262,240.48ZM262,20a50.33,50.33,0,1,1-50.33,50.33A50.38,50.38,0,0,1,262,20ZM70.33,240.89a50.33,50.33,0,1,1,50.32-50.32A50.39,50.39,0,0,1,70.33,240.89ZM262,361.13a50.33,50.33,0,1,1,50.32-50.32A50.38,50.38,0,0,1,262,361.13Z"/></svg>